<?xml version="1.0" standalone="no"?><!DOCTYPE svg PUBLIC "-//W3C//DTD SVG 1.1//EN" "http://www.w3.org/Graphics/SVG/1.1/DTD/svg11.dtd"><svg t="1668425462104" class="icon" viewBox="0 0 1024 1024" version="1.1" xmlns="http://www.w3.org/2000/svg" p-id="3085" xmlns:xlink="http://www.w3.org/1999/xlink" width="64" height="64"><path d="M800.938667 307.456c28.8 0 52.394667 26.026667 52.394666 57.813333v388.309334c0 31.829333-23.594667 57.856-52.394666 57.856H265.728c-28.8 0-52.394667-26.026667-52.394667-57.856V271.914667c0-31.786667 23.594667-57.813333 52.394667-57.813334h280.704c50.901333 0 93.568 40.064 102.912 93.354667h151.594667zM250.752 272.341333v35.498667h360.064c-8.618667-30.122667-34.432-52.053333-64.384-52.053333H265.728c-8.234667 0-14.933333 7.466667-14.933333 16.554666z m565.162667 473.002667V373.546667c0-13.653333-10.112-24.789333-22.442667-24.789334H250.752v396.586667c0 13.610667 10.112 24.746667 22.442667 24.746667h520.277333c12.330667 0 22.442667-11.136 22.442667-24.746667z m-174.976-208.768c11.434667 0 20.394667 8.661333 20.394666 18.858667 0 10.538667-8.96 18.773333-20.394666 18.773333h-97.877334v90.368c0 10.538667-8.96 18.858667-20.394666 18.858667s-20.394667-8.32-20.394667-18.858667V574.293333H404.394667c-11.434667 0-20.394667-8.277333-20.394667-18.816s8.96-18.858667 20.394667-18.858666h97.877333V446.293333c0-10.538667 8.96-18.816 20.394667-18.816s20.394667 8.277333 20.394666 18.773334v90.368h97.877334z" fill="#000000" p-id="3086"></path></svg>