<?xml version="1.0" standalone="no"?><!DOCTYPE svg PUBLIC "-//W3C//DTD SVG 1.1//EN" "http://www.w3.org/Graphics/SVG/1.1/DTD/svg11.dtd"><svg t="1668187287587" class="icon" viewBox="0 0 1024 1024" version="1.1" xmlns="http://www.w3.org/2000/svg" p-id="5203" xmlns:xlink="http://www.w3.org/1999/xlink" width="48" height="48"><path d="M512 955.733333a17.032533 17.032533 0 0 1-13.636267-6.8096l-384.853333-512C83.490133 397.124267 68.266667 350.600533 68.266667 298.666667c0-63.5904 22.647467-118.459733 67.293866-163.106134S235.076267 68.266667 298.666667 68.266667s118.459733 22.647467 163.106133 67.293866c22.2208 22.203733 38.980267 46.9504 50.2272 74.018134 11.246933-27.067733 28.023467-51.8144 50.2272-74.018134C606.8736 90.914133 661.742933 68.266667 725.333333 68.266667s118.459733 22.647467 163.106134 67.293866C933.085867 180.206933 955.733333 235.076267 955.733333 298.666667c0 51.9168-15.240533 98.440533-45.243733 138.274133L525.653333 948.923733c-3.242667 4.3008-8.2944 6.8096-13.653333 6.8096zM298.666667 102.4c-54.971733 0-100.420267 18.7392-138.973867 57.2928S102.4 243.694933 102.4 298.666667c0 44.970667 12.544 83.490133 38.382933 117.725866L512 910.267733l371.2-493.858133C908.680533 382.6176 921.6 343.005867 921.6 298.666667c0-54.971733-18.756267-100.420267-57.2928-138.973867S780.305067 102.4 725.333333 102.4s-100.420267 18.7392-138.973866 57.2928C548.352 197.700267 529.6128 242.346667 529.066667 296.192v5.034667a17.066667 17.066667 0 1 1-34.133334 0v-5.034667c-0.546133-53.845333-19.285333-98.491733-57.2928-136.4992C399.086933 121.1392 353.6384 102.4 298.666667 102.4z" p-id="5204" fill="#EC4141"></path><path d="M597.333333 716.8a34.133333 34.133333 0 0 1-30.532266-18.858667L426.666667 417.655467l-54.801067 109.602133A34.133333 34.133333 0 0 1 341.333333 546.133333H85.333333a34.133333 34.133333 0 0 1 0-68.266666h234.9056l75.895467-151.808a34.167467 34.167467 0 0 1 61.064533 0L597.333333 606.344533l54.801067-109.6192A34.133333 34.133333 0 0 1 682.666667 477.866667h256a34.133333 34.133333 0 0 1 0 68.266666H703.761067l-75.895467 151.808A34.133333 34.133333 0 0 1 597.333333 716.8z" p-id="5205" fill="#EC4141"></path></svg>