<?xml version="1.0" standalone="no"?><!DOCTYPE svg PUBLIC "-//W3C//DTD SVG 1.1//EN" "http://www.w3.org/Graphics/SVG/1.1/DTD/svg11.dtd"><svg t="1668425539871" class="icon" viewBox="0 0 1024 1024" version="1.1" xmlns="http://www.w3.org/2000/svg" p-id="1959" xmlns:xlink="http://www.w3.org/1999/xlink" width="64" height="64"><path d="M640 810.666667H341.333333C187.733333 810.666667 64 686.933333 64 533.333333s123.733333-277.333333 277.333333-277.333333h597.333334c12.8 0 21.333333 8.533333 21.333333 21.333333s-8.533333 21.333333-21.333333 21.333334H341.333333C211.2 298.666667 106.666667 403.2 106.666667 533.333333s104.533333 234.666667 234.666666 234.666667h298.666667c85.333333 0 164.266667-38.4 217.6-104.533333 19.2-25.6 36.266667-53.333333 44.8-83.2 4.266667-14.933333 8.533333-29.866667 10.666667-42.666667 2.133333-10.666667 12.8-19.2 23.466666-17.066667 10.666667 2.133333 19.2 12.8 17.066667 23.466667-2.133333 17.066667-6.4 34.133333-12.8 51.2-12.8 34.133333-29.866667 68.266667-53.333333 96-57.6 74.666667-149.333333 119.466667-247.466667 119.466667z" p-id="1960"></path><path d="M810.666667 426.666667c-6.4 0-10.666667-2.133333-14.933334-6.4-8.533333-8.533333-8.533333-21.333333 0-29.866667l113.066667-113.066667-113.066667-113.066666c-8.533333-8.533333-8.533333-21.333333 0-29.866667s21.333333-8.533333 29.866667 0l128 128c8.533333 8.533333 8.533333 21.333333 0 29.866667l-128 128c-4.266667 4.266667-8.533333 6.4-14.933333 6.4zM512 682.666667c-12.8 0-21.333333-8.533333-21.333333-21.333334V405.333333c0-12.8 8.533333-21.333333 21.333333-21.333333s21.333333 8.533333 21.333333 21.333333v256c0 12.8-8.533333 21.333333-21.333333 21.333334z" p-id="1961"></path><path d="M416 522.666667c-6.4 0-10.666667-2.133333-14.933333-6.4-8.533333-8.533333-8.533333-21.333333 0-29.866667l96-96c8.533333-8.533333 21.333333-8.533333 29.866666 0s8.533333 21.333333 0 29.866667l-96 96c-4.266667 4.266667-8.533333 6.4-14.933333 6.4z" p-id="1962"></path></svg>