<?xml version="1.0" standalone="no"?><!DOCTYPE svg PUBLIC "-//W3C//DTD SVG 1.1//EN" "http://www.w3.org/Graphics/SVG/1.1/DTD/svg11.dtd"><svg t="1668476327552" class="icon" viewBox="0 0 1024 1024" version="1.1" xmlns="http://www.w3.org/2000/svg" p-id="2140" width="48" height="48" xmlns:xlink="http://www.w3.org/1999/xlink"><path d="M534.4 842.154667c-11.221333 0-24.021333-4.821333-32-12.8L334.378667 674.133333H176.042667A47.146667 47.146667 0 0 1 128 626.133333v-236.8C128 362.112 148.778667 341.333333 176 341.333333h158.421333l167.978667-155.221333a46.506667 46.506667 0 0 1 51.2-7.978667c17.578667 7.978667 28.8 25.6 28.8 43.178667v572.8c0 19.2-11.221333 36.821333-28.8 43.221333-6.4 4.821333-12.8 4.821333-19.2 4.821334z m-310.4-262.4h128c12.8 0 24.021333 4.778667 32 12.8l100.821333 92.8V330.069333L384 422.912c-9.6 8.021333-20.821333 12.8-32 12.8h-128v144.042667zM900.821333 648.533333c-11.221333 0-24.021333-4.821333-32-12.8L678.4 445.312a45.397333 45.397333 0 0 1 0-64 45.397333 45.397333 0 0 1 64 0l190.421333 190.421333a45.397333 45.397333 0 0 1 0 64c-8.021333 7.978667-20.821333 12.8-32 12.8z" fill="#172B4D" p-id="2141"></path><path d="M710.4 648.533333c-11.178667 0-24.021333-4.821333-32-12.8a45.397333 45.397333 0 0 1 0-64l190.421333-190.421333a45.397333 45.397333 0 0 1 64 0 45.397333 45.397333 0 0 1 0 64L744.021333 635.733333a51.626667 51.626667 0 0 1-33.621333 12.8z" fill="#172B4D" p-id="2142"></path></svg>