<?xml version="1.0" standalone="no"?>
<!DOCTYPE svg PUBLIC "-//W3C//DTD SVG 1.1//EN" "http://www.w3.org/Graphics/SVG/1.1/DTD/svg11.dtd"><svg t="1668476343560"
  class="icon" viewBox="0 0 1024 1024" version="1.1" xmlns="http://www.w3.org/2000/svg" p-id="2387"
  xmlns:xlink="http://www.w3.org/1999/xlink" width="48" height="48">
  <path
    d="M514.005333 810.666667c-10.794667 0-23.125333-4.650667-30.805333-12.373334L321.28 648.832H168.746667c-26.24 0-46.250667-20.053333-46.250667-46.250667V374.4c0-26.197333 20.053333-46.208 46.250667-46.208H321.28l161.877333-149.546667a44.8 44.8 0 0 1 49.322667-7.68c16.938667 7.68 27.733333 24.661333 27.733333 41.6v551.850667c0 18.474667-10.794667 35.413333-27.733333 41.6-6.186667 4.650667-12.373333 4.650667-18.517333 4.650667z m-299.050666-252.8h123.306666c12.373333 0 23.168 4.608 30.848 12.330666l97.109334 89.386667v-342.186667L369.109333 406.784c-9.258667 7.68-20.053333 12.373333-30.805333 12.373333h-123.306667v138.666667zM686.634667 639.573333c-4.608 0-9.216 0-13.866667-1.536a46.805333 46.805333 0 0 1-30.805333-58.581333 259.413333 259.413333 0 0 0-7.68-177.28c-9.301333-23.125333 1.493333-50.858667 24.618666-60.117333 23.125333-9.258667 50.858667 1.536 60.16 24.661333 32.341333 75.52 35.413333 161.877333 10.752 240.469333-4.608 20.053333-23.125333 32.384-43.178666 32.384z"
    fill="#172B4D" p-id="2388"></path>
</svg>